<svg width="205" height="173" viewBox="0 0 205 173" fill="none" xmlns="http://www.w3.org/2000/svg">
<path d="M125.396 168.999C127.571 168.636 129.718 168.243 131.837 167.819C142.095 165.786 151.665 163.082 160.343 159.586C176.674 153.009 189.834 143.627 198.457 130.622C215.051 105.579 197.676 71.9532 167.988 58.3628C138.3 44.7725 126.61 -20.5462 81.6709 7.32341C47.2628 28.67 77.1785 75.7354 39.1643 102.27C-3.34219 131.939 23.5714 173.426 74.2325 172.997C82.0235 172.93 89.6804 172.671 97.1281 172.182L125.396 168.999Z" fill="#9FCEF6"/>
<path d="M97.1296 172.182C96.855 167.543 96.699 162.899 96.6615 158.248C96.6438 156.281 96.6475 154.314 96.6724 152.348C96.7338 147.444 96.9252 142.546 97.2467 137.652C97.4323 134.802 101.048 134.001 104.268 133.739L158.585 129.288C158.992 133.621 159.333 137.959 159.608 142.3C159.76 144.69 159.891 147.081 159.999 149.474C160.155 152.845 160.27 156.217 160.344 159.59C151.667 163.086 142.097 165.786 131.839 167.823C131.43 165.221 131.664 160.998 130.848 159.987C129.564 158.397 128.308 158.475 126.679 159.716C125.413 160.681 125.145 165.841 125.398 168.999L97.1296 172.182Z" fill="black"/>
<path d="M107.334 75.3784C98.2966 78.7107 92.9913 80.4661 87.9497 88.302C84.0924 94.294 83.6367 101.634 83.2841 108.64C82.9314 115.645 82.5975 122.819 84.7571 129.53C85.6434 132.289 87.0306 135.031 89.4383 136.798C91.8459 138.566 95.466 139.094 98.9566 137.337C113.185 137.976 127.426 138.173 141.679 137.927C147.028 137.834 153.069 137.372 157.813 133.363C161.375 136.406 167.228 136.208 171.129 133.565C175.03 130.921 177.088 126.328 177.386 121.799C177.684 117.271 176.417 112.774 174.752 108.523C171.338 99.8165 166.245 91.7839 159.732 84.8325C157.271 82.2083 154.555 79.7064 151.233 78.1472C147.911 76.588 144.969 75.6395 141.356 77.5793C137.116 81.7097 131.229 83.4901 125.199 82.7319C118.631 81.919 112.439 79.3702 107.334 75.3784Z" fill="#52A415"/>
<path d="M128.039 83.2588C128.754 101.624 129.738 119.978 130.993 138.319" stroke="black" strokeWidth="0.956138" strokeMiterlimit="10" strokeLinecap="round"/>
<path d="M100.865 97.8478C100.197 102.175 99.8129 106.538 99.7155 110.91C99.7295 109.901 100.964 109.377 101.605 108.568C102.178 107.83 102.243 106.868 102.289 105.959C102.431 103.014 102.512 99.8436 100.865 97.8478Z" fill="#4D9B10"/>
<path d="M112.428 99.2504C115.755 92.1049 123.639 87.0703 131.892 86.8225C132.432 86.8062 132.995 86.8136 133.478 87.0437C134.393 87.4863 134.718 88.6546 134.383 89.5736C134.047 90.4926 133.2 91.1623 132.285 91.6048C131.33 92.0665 130.266 92.3276 129.377 92.8926C128.487 93.4576 129.247 93.4679 129.377 94.474C129.516 95.5331 129.085 96.0641 129.077 96.8342C129.077 97.5098 129.36 97.7502 129.377 98.2591C129.408 99.1752 129.13 98.9318 129.077 99.8478C129.04 100.49 129.653 101.966 129.133 102.698C128.509 103.583 127.899 104.382 126.916 104.894C124.498 106.157 122.364 107.908 120.966 110.11C116.157 108.371 110.403 103.599 112.428 99.2504Z" fill="#E59A97"/>
<path d="M108.809 101.915C110.124 108.066 117.859 112.279 121.038 112.655C121.81 111.501 121.861 109.954 122.209 108.629C116.79 106.819 114.172 104.079 112.019 99.041C110.443 100.084 109.083 101.411 108.809 101.915Z" fill="#EE4266"/>
<path d="M94.033 117.937C98.9092 110.942 104.781 103.006 111.745 99.3199" stroke="black" strokeWidth="0.956138" strokeMiterlimit="10" strokeLinecap="round"/>
<path d="M122.203 108.629C121.314 113.469 119.1 118.532 115.732 122.276C110.681 127.9 105.501 133.621 98.8459 137.481" stroke="black" strokeWidth="0.956138" strokeMiterlimit="10" strokeLinecap="round"/>
<path d="M136.672 111.715L146.413 87.0319C146.655 86.4183 147.096 85.8925 147.673 85.5294C148.249 85.1663 148.932 84.9843 149.625 85.0095L163.223 85.4978C163.744 85.5162 164.254 85.6513 164.709 85.892C165.164 86.1326 165.552 86.472 165.841 86.8821C166.131 87.2922 166.313 87.7614 166.373 88.2511C166.434 88.7407 166.37 89.237 166.188 89.6989L158.559 109.023L149.414 114.334C149.172 114.947 148.731 115.474 148.155 115.837C147.578 116.2 146.895 116.382 146.203 116.357L139.633 115.928C139.111 115.91 138.601 115.774 138.145 115.533C137.689 115.291 137.3 114.951 137.011 114.539C136.721 114.128 136.54 113.657 136.481 113.166C136.422 112.675 136.487 112.178 136.672 111.715Z" fill="black"/>
<path d="M144.662 112.313C144.851 113.957 145.384 115.55 146.23 116.998L162.103 108.62L159.786 103.752C155.127 107.182 150.085 110.12 144.751 112.513" fill="#EE4266"/>
<path d="M144.229 111.243C143.21 109.7 141.765 108.454 140.621 106.992C139.477 105.53 138.619 103.691 139.061 101.919C139.206 101.329 139.625 100.707 139.493 100.065C139.148 98.3906 139.881 97.2223 140.697 96.0452C141.175 95.3563 142.447 93.7809 142.579 92.9843C143.072 90.0031 142.816 87.0381 145.803 87.6207C146.706 87.7963 145.435 88.9764 146.023 89.6299C146.611 90.2833 148.081 92.2851 148.081 92.2851C148.081 92.2851 152.461 92.2394 153.399 92.6111C155.388 93.3988 156.501 95.4138 157.144 97.3595C157.787 99.3052 158.119 101.391 159.28 103.113C154.909 106.774 149.784 109.542 144.229 111.243Z" fill="#E59A97"/>
<path d="M159.336 103.006C161.922 108.341 164.81 113.539 167.989 118.579" stroke="black" strokeWidth="0.956138" strokeMiterlimit="10" strokeLinecap="round"/>
<path d="M157.449 133.167C150.897 127.275 146.343 119.677 144.366 111.335" stroke="black" strokeWidth="0.956138" strokeMiterlimit="10" strokeLinecap="round"/>
<path d="M144.697 112.748C150.084 110.377 155.327 107.724 160.403 104.803L159.454 102.558L143.953 110.982C144.249 111.695 144.541 112.404 144.697 112.748Z" fill="#2B2B2B"/>
<path d="M151.43 110.793C152.923 110.793 154.134 109.649 154.134 108.237C154.134 106.825 152.923 105.68 151.43 105.68C149.937 105.68 148.726 106.825 148.726 108.237C148.726 109.649 149.937 110.793 151.43 110.793Z" fill="black"/>
<path d="M128.25 83.4284L128.899 86.9539C129.915 87.0717 130.939 86.8038 131.746 86.209C130.935 85.2322 130.253 84.1651 129.717 83.0316C129.22 83.1351 128.73 83.2676 128.25 83.4284Z" fill="black"/>
<path d="M147.174 119.442C144.645 121.212 142.273 122.687 139.744 124.458C140.321 125.394 141.206 126.796 141.783 127.732C144.392 125.949 146.244 124.413 149.117 123.031C148.351 121.937 147.926 120.724 147.174 119.442Z" fill="black"/>
<path d="M115.162 123.056C114.107 124.229 113.32 124.943 112.183 126.202C114.986 127.554 117.948 128.589 121.007 129.285C122.174 127.897 122.13 127.731 122.879 126.418C119.972 125.08 118.12 124.143 115.162 123.056Z" fill="black"/>
<path d="M114.64 66.2517C113.991 69.0361 112.603 71.6185 110.606 73.7557C119.17 79.4305 130.756 80.7758 140.519 77.2311L138.728 69.0249C136.64 70.9338 133.285 70.5488 130.431 70.0339C124.923 69.0353 119.419 68.0469 114.64 66.2517Z" fill="#E59A97"/>
<path d="M111.617 72.8708C110.272 73.8632 108.805 74.6973 107.248 75.3549C111.715 80.0465 117.888 82.9745 124.537 83.5551C131.115 84.1024 139.574 81.1817 144.057 76.622C143.032 76.0408 142.174 75.3947 140.57 75.9582C131.293 80.6182 119.214 79.7906 111.617 72.8708Z" fill="black"/>
<path d="M157.88 37.1107C160.556 29.3633 159.356 20.6542 154.638 13.8346C149.919 7.01513 142.109 2.26374 133.658 0.64995C125.207 -0.96384 116.211 0.489161 108.605 4.32449C103.455 6.92219 98.8162 10.6926 96.1433 15.5989C93.8963 19.7219 92.3984 25.5014 91.9552 30.1201C91.3217 36.6593 92.2673 40.5241 93.1427 45.0882C94.3769 51.5787 95.0495 55.0128 99.7166 59.9103C100.949 61.204 105.292 62.8236 107.135 62.8236C116.341 62.8236 119.161 57.3539 119.413 55.6044C120.474 48.2745 120.364 51.5861 120.996 45.1693C122.622 28.6479 127.037 30.6939 136.525 30.6939C158.019 30.6939 157.793 34.6531 157.88 37.1107Z" fill="black"/>
<path d="M148.928 59.2347C150.688 59.754 152.642 58.832 153.765 57.4528C154.889 56.0735 155.368 54.3255 155.77 52.6232C157.385 45.7875 158.256 38.816 159.127 31.8593C159.301 30.4565 159.46 28.9607 158.786 27.7009C157.944 26.124 155.762 25.3245 154.015 25.9514C154.388 34.9871 153.126 44.0167 150.285 52.6512C149.526 54.9805 148.661 57.5796 148.928 59.2347Z" fill="#6E6E6E"/>
<path d="M159.14 31.4198C157.787 29.2705 156.578 27.2673 154.011 26.6596C151.444 26.0518 148.763 26.0916 146.119 26.1344C139.517 26.2421 132.882 26.3527 126.375 27.4163C123.917 27.8175 121.351 28.4209 119.564 30.0715C117.281 32.178 116.824 35.4528 116.679 38.4665C116.443 43.3831 117.072 48.2879 116.482 53.1765C116.179 55.6842 116.125 58.6344 114.494 60.6362C112.864 62.6379 109.178 63.7694 106.711 62.812C109.147 58.7746 109.659 53.7562 109.908 49.1154C110.158 44.4747 110.033 39.7793 111.049 35.2315C112.065 30.6837 117.181 22.9481 123.643 21.7238C130.501 20.4227 142.506 20.79 150.708 20.7679C152.933 20.7679 155.308 20.7974 157.154 21.9716C158.664 22.9304 158.625 23.6709 159.059 25.3408C159.493 27.0106 159.174 30.278 159.14 31.4198Z" fill="#6E6E6E"/>
<path d="M155.116 29.5949C154.935 35.5293 154.136 38.9384 152.738 44.7268C151.617 49.3587 151.073 53.163 149.573 57.6976C148.846 59.8955 147.153 62.8605 145.88 64.818C144.55 66.8684 143.999 68.6533 141.859 69.9456C139.637 71.2923 132.866 72.763 130.227 72.7188C119.461 72.5344 112.085 67.0307 114.814 60.5623C117.136 55.0571 116.452 50.2777 116.452 45.485C116.452 35.4157 116.062 30.7101 120.848 28.7024C124.07 27.3512 129.307 26.5532 132.821 26.267C137.561 25.879 141.067 25.8245 145.808 25.4439C151.385 24.9895 155.233 25.792 155.116 29.5949Z" fill="#E59A97"/>
<path d="M149.058 58.6091C146.151 65.2221 143.078 71.5003 131.042 71.5711C124.071 71.6109 117.173 66.1706 114.99 59.9176C113.929 61.1744 113.08 61.8751 112.013 62.4253C115.238 68.609 120.888 72.8662 126.981 74.0257L126.916 74.9816C128.116 75.3695 133.396 75.1571 133.396 75.1571C133.521 74.6749 133.562 74.1766 133.516 73.682C143.142 72.7173 148.418 63.8517 150.049 59.2257C149.634 58.9941 149.488 59.0399 149.058 58.6091Z" fill="black"/>
<path d="M157.804 37.0637C158.023 35.944 157.394 34.7846 156.451 34.0765C155.509 33.3685 154.301 33.0513 153.108 32.8964C150.841 32.62 148.538 32.892 146.413 33.6871C145.235 34.1296 144.088 34.7359 142.825 34.8111C141.503 34.8908 140.234 34.3789 138.977 33.9895C136.272 33.167 133.418 32.8736 130.59 33.1272C127.761 33.3808 125.017 34.1761 122.524 35.4646C121.588 35.9558 120.676 36.5208 119.664 36.8645C118.651 37.2082 117.492 37.3071 116.637 36.8837C116.244 38.217 116.244 39.6262 116.637 40.9595C118.25 40.545 119.956 41.3445 121.185 42.4154C122.415 43.4864 123.351 44.8332 124.598 45.8879C125.869 46.9644 127.423 47.6983 129.097 48.0129C130.772 48.3276 132.504 48.2115 134.115 47.6766C135.725 47.1418 137.154 46.208 138.252 44.9727C139.35 43.7373 140.078 42.2459 140.358 40.6541C140.514 39.8059 140.757 38.7011 141.662 38.6111C142.489 38.5285 143.024 39.4357 143.14 40.2145C143.35 41.6307 142.984 43.15 143.599 44.4541C144.023 45.348 144.866 46.0103 145.783 46.4765C148.67 47.9516 152.493 47.5769 155 45.5707C157.508 43.5646 157.211 40.0774 157.804 37.0637Z" fill="black"/>
<path d="M125.193 53.9273C126.708 54.6253 128.435 54.7976 130.072 54.4141C132.295 53.886 134.396 52.3386 136.635 52.8106C137.657 53.026 138.548 53.65 139.576 53.8285C141.137 54.0999 142.739 53.2945 144.32 53.4877C146.367 53.7385 148.108 55.6178 150.129 55.2225C150.485 55.1517 150.825 55.0115 151.187 54.9879C151.549 54.9643 151.967 55.0971 152.101 55.4142C152.231 55.7093 152.084 56.0427 151.92 56.32C150.976 57.9215 149.418 59.1199 147.567 59.6687C145.716 60.2174 143.713 60.0749 141.97 59.2702C141.052 58.8483 140.191 58.2376 139.175 58.1329C137.936 58.0031 136.777 58.6492 135.596 59.0283C134.548 59.3614 133.44 59.4919 132.338 59.4118C131.236 59.3317 130.162 59.0428 129.181 58.5622C127.232 57.5856 125.734 55.8347 125.193 53.9273Z" fill="black"/>
<path d="M137.831 51.0198C138.071 50.7759 138.389 50.6134 138.737 50.5574C139.084 50.5014 139.442 50.555 139.754 50.71C140.237 50.9637 140.599 51.4667 141.158 51.5154C141.646 51.5582 142.066 51.2204 142.489 50.9859C142.912 50.7513 143.545 50.6466 143.825 51.0272" stroke="black" strokeWidth="0.956138" strokeMiterlimit="10" strokeLinecap="round"/>
<path d="M137.312 58.0575C137.687 58.3869 138.162 58.5967 138.67 58.6573C139.178 58.7179 139.694 58.6263 140.144 58.3953" stroke="black" strokeWidth="0.956138" strokeMiterlimit="10" strokeLinecap="round"/>
<path d="M134.681 59.9781C135.667 60.8073 136.937 61.271 138.257 61.2835C139.576 61.2959 140.856 60.8564 141.859 60.046" stroke="black" strokeWidth="0.956138" strokeMiterlimit="10" strokeLinecap="round"/>
<path d="M35.4112 96.115L40.3358 109.813L45.7566 104.702L35.4112 96.115Z" fill="white"/>
<path d="M26.436 93.9449L15.053 115.622L24.7321 119.876L26.436 93.9449Z" fill="white"/>
<path d="M23.5862 89.2775L3.475 104.403L1.33696 96.0867L23.5862 89.2775Z" fill="white"/>
<path d="M26.252 89.5324L15.7849 51.1023L77.0504 32.7473L88.6659 81.5283L26.252 89.5324Z" fill="#52A415"/>
<path d="M26.2531 89.5324L46.418 50.266L88.6671 81.5284L26.2531 89.5324Z" fill="#4D9B10"/>
<path d="M77.0504 32.7473L53.4246 75.7207L15.7849 51.1023L77.0504 32.7473Z" fill="#45890A"/>
<path d="M14.7158 59.4897C22.471 59.4897 28.7578 53.5464 28.7578 46.215C28.7578 38.8836 22.471 32.9403 14.7158 32.9403C6.96068 32.9403 0.673889 38.8836 0.673889 46.215C0.673889 53.5464 6.96068 59.4897 14.7158 59.4897Z" fill="white"/>
<path d="M8.00787 49.0961C8.80679 47.7758 9.00496 46.1458 9.15476 44.5822C9.32328 42.8268 9.49648 40.9814 10.4733 39.5107C11.344 38.1993 12.7515 37.4809 14.2635 37.3068C14.7913 37.2466 15.3252 37.2506 15.8519 37.3186C16.175 37.3603 16.4954 37.4189 16.8116 37.4942C18.4375 37.8954 19.4018 38.7643 20.0634 40.409C20.725 42.0538 20.5019 43.8756 20.3022 45.628C20.1258 47.1858 19.9792 48.8246 20.4879 50.2673L8.00787 49.0961Z" fill="#52A415"/>
<path d="M22.1175 51.5995C22.0836 51.909 21.9218 52.1933 21.6673 52.3905C21.4127 52.5878 21.0861 52.682 20.7584 52.6527L7.24547 51.3856C7.07154 51.385 6.89966 51.3501 6.74084 51.283C6.58203 51.216 6.43979 51.1183 6.32324 50.9962C6.2067 50.8741 6.11843 50.7304 6.06408 50.5742C6.00974 50.418 5.99052 50.2528 6.00767 50.0892C6.02481 49.9255 6.07794 49.7671 6.16364 49.624C6.24935 49.4809 6.36573 49.3564 6.50534 49.2583C6.64495 49.1602 6.8047 49.0908 6.97434 49.0545C7.14399 49.0182 7.31978 49.0158 7.49046 49.0475L21.0034 50.3146C21.3308 50.3467 21.6315 50.4997 21.8402 50.7403C22.0488 50.9809 22.1485 51.2897 22.1175 51.5995Z" fill="#52A415"/>
<path d="M16.8916 52.2896C16.7843 52.9891 16.3958 53.6225 15.807 54.0579C15.2181 54.4934 14.4743 54.6974 13.7304 54.6275C12.9864 54.5575 12.2997 54.219 11.8131 53.6824C11.3265 53.1458 11.0776 52.4525 11.1182 51.7468L16.8916 52.2896Z" fill="#111414"/>
<path d="M16.8442 37.1727L16.8099 37.5016C16.4938 37.4244 16.1734 37.3638 15.8503 37.3202C15.3235 37.2521 14.7896 37.2482 14.2618 37.3084L14.3008 36.9278C14.3174 36.7694 14.3669 36.6157 14.4465 36.4755C14.5262 36.3353 14.6344 36.2114 14.765 36.1109C14.8955 36.0104 15.0458 35.9353 15.2071 35.8899C15.3685 35.8445 15.5377 35.8298 15.7051 35.8465C15.8721 35.8627 16.0341 35.9099 16.1817 35.9854C16.3294 36.0608 16.4598 36.1631 16.5656 36.2862C16.6715 36.4094 16.7505 36.5511 16.7983 36.7032C16.8461 36.8553 16.8617 37.0149 16.8442 37.1727Z" fill="#111414"/>
<path d="M142.816 92.984C142.816 92.984 143.696 96.0567 145.461 97.4094" stroke="black" strokeWidth="0.637426" strokeMiterlimit="10" strokeLinecap="round"/>
<path d="M140.696 96.0451C140.696 96.0451 141.576 99.1178 143.341 100.47" stroke="black" strokeWidth="0.637426" strokeMiterlimit="10" strokeLinecap="round"/>
<path d="M139.576 99.752C139.576 99.752 140.456 102.825 142.229 104.177" stroke="black" strokeWidth="0.637426" strokeMiterlimit="10" strokeLinecap="round"/>
<path d="M148.093 92.3735C148.093 92.3735 148.973 95.4462 150.746 96.7989" stroke="black" strokeWidth="0.637426" strokeMiterlimit="10" strokeLinecap="round"/>
<path d="M153 107.491L151.3 108.505L150.406 106.903" stroke="white" strokeWidth="0.637426" strokeMiterlimit="10" strokeLinecap="round"/>
<path d="M129.378 92.8985C129.378 92.8985 126.04 93.757 123.081 95.6511" stroke="black" strokeWidth="0.637426" strokeMiterlimit="10" strokeLinecap="round"/>
<path d="M129.078 96.6204C129.078 96.6204 126.54 96.9242 124.359 98.2932" stroke="black" strokeWidth="0.637426" strokeMiterlimit="10" strokeLinecap="round"/>
<path d="M129.078 99.5498C129.078 99.5498 127.274 99.33 124.752 100.903" stroke="black" strokeWidth="0.637426" strokeMiterlimit="10" strokeLinecap="round"/>
<path d="M129.079 102.154C129.079 102.154 127.167 102.18 125.005 103.421" stroke="black" strokeWidth="0.637426" strokeMiterlimit="10" strokeLinecap="round"/>
<path d="M135.501 120.609C127.902 128.454 97.1229 153.708 57.0037 98.8728" stroke="white" strokeWidth="1.91228" strokeMiterlimit="10" strokeLinecap="round" strokeDasharray="3.83 3.83"/>
<path d="M56.4626 98.1411C56.2882 97.8977 56.1121 97.6543 55.9377 97.4036" stroke="black" strokeWidth="1.91228" strokeMiterlimit="10" strokeLinecap="round"/>
<path d="M60.4845 96.61C59.8728 96.877 53.9481 100.847 53.9481 100.847C53.9481 100.847 53.2911 92.7938 53.2272 92.9871C53.1632 93.1803 60.4845 96.61 60.4845 96.61Z" fill="white"/>
<path d="M138.346 29.4402C135.87 28.7248 133.292 28.1126 130.713 28.3442C128.133 28.5758 125.523 29.7677 124.27 31.9126C126.367 31.3461 128.483 30.8062 130.647 30.5525C132.812 30.2988 135.04 30.3415 137.132 30.9257C137.458 31.0172 137.816 31.1204 138.131 30.995C138.28 30.9234 138.406 30.8161 138.498 30.6838C138.589 30.5516 138.642 30.399 138.652 30.2412C138.688 29.927 138.649 29.5273 138.346 29.4402Z" fill="black"/>
<path d="M144.372 29.5316C146.507 28.915 148.727 28.3913 150.949 28.5875C153.171 28.7837 155.423 29.8148 156.501 31.6617C154.694 31.1749 152.871 30.7087 151.007 30.4904C149.142 30.2721 147.221 30.309 145.419 30.812C145.137 30.8902 144.828 30.9802 144.558 30.871C144.429 30.8096 144.32 30.7173 144.241 30.6034C144.162 30.4894 144.116 30.3579 144.108 30.2219C144.072 29.952 144.11 29.6068 144.372 29.5316Z" fill="black"/>
<path d="M53.3217 137.483C54.7669 137.483 55.9384 136.375 55.9384 135.009C55.9384 133.643 54.7669 132.535 53.3217 132.535C51.8765 132.535 50.7049 133.643 50.7049 135.009C50.7049 136.375 51.8765 137.483 53.3217 137.483Z" stroke="#0081A0" strokeWidth="1.27485" strokeMiterlimit="10"/>
<path d="M64.8353 156.437C65.8738 156.437 66.7156 155.641 66.7156 154.659C66.7156 153.678 65.8738 152.882 64.8353 152.882C63.7969 152.882 62.9551 153.678 62.9551 154.659C62.9551 155.641 63.7969 156.437 64.8353 156.437Z" stroke="#0081A0" strokeWidth="1.27485" strokeMiterlimit="10"/>
<path d="M64.8353 156.437C65.8738 156.437 66.7156 155.641 66.7156 154.659C66.7156 153.678 65.8738 152.882 64.8353 152.882C63.7969 152.882 62.9551 153.678 62.9551 154.659C62.9551 155.641 63.7969 156.437 64.8353 156.437Z" stroke="#0081A0" strokeWidth="1.27485" strokeMiterlimit="10"/>
<path d="M36.5392 135.873C37.5776 135.873 38.4195 135.078 38.4195 134.096C38.4195 133.114 37.5776 132.318 36.5392 132.318C35.5008 132.318 34.6589 133.114 34.6589 134.096C34.6589 135.078 35.5008 135.873 36.5392 135.873Z" stroke="#0081A0" strokeWidth="1.27485" strokeMiterlimit="10"/>
</svg>
