<svg width="655" height="423" viewBox="0 0 655 423" fill="none" xmlns="http://www.w3.org/2000/svg">
<path d="M226.552 -371.026L244.533 -370.338C372.773 -365.432 451.674 -230.635 385.571 -129.383L375.918 -114.596C313.777 -19.4121 388.514 107.228 509.068 111.024L553.224 112.414C640.121 115.15 700.502 199.047 670.003 274.674V274.674" stroke="white" stroke-opacity="0.15" stroke-width="0.653416"/>
<path d="M237.08 -376.299L255.061 -375.611C383.301 -370.705 462.202 -235.908 396.099 -134.655L386.445 -119.868C324.305 -24.6844 399.042 101.956 519.596 105.752L563.752 107.142C650.649 109.878 711.029 193.774 680.531 269.402V269.402" stroke="white" stroke-opacity="0.15" stroke-width="0.653416"/>
<path d="M247.608 -381.571L265.589 -380.883C393.829 -375.977 472.73 -241.18 406.627 -139.928L396.974 -125.141C334.833 -29.957 409.57 96.6834 530.124 100.479L574.28 101.869C661.177 104.605 721.558 188.502 691.059 264.129V264.129" stroke="white" stroke-opacity="0.15" stroke-width="0.653416"/>
<path d="M258.136 -386.844L276.117 -386.156C404.357 -381.25 483.258 -246.453 417.155 -145.201L407.502 -130.414C345.361 -35.2301 420.098 91.4102 540.652 95.2059L584.808 96.5962C671.705 99.3322 732.086 183.229 701.587 258.856V258.856" stroke="white" stroke-opacity="0.15" stroke-width="0.653416"/>
<path d="M268.664 -392.118L286.645 -391.43C414.885 -386.524 493.785 -251.727 427.683 -150.475L418.029 -135.687C355.889 -40.5036 430.626 86.1367 551.179 89.9324L595.336 91.3227C682.233 94.0587 742.613 177.955 712.115 253.583V253.583" stroke="white" stroke-opacity="0.15" stroke-width="0.653416"/>
<path d="M279.193 -397.392L297.174 -396.704C425.414 -391.798 504.314 -257.001 438.212 -155.748L428.558 -140.961C366.418 -45.7774 441.155 80.863 561.708 84.6587L605.865 86.0489C692.762 88.7849 753.142 172.681 722.644 248.309V248.309" stroke="white" stroke-opacity="0.15" stroke-width="0.653416"/>
<path d="M289.721 -402.665L307.702 -401.977C435.942 -397.071 514.843 -262.274 448.74 -161.021L439.087 -146.234C376.946 -51.0504 451.683 75.59 572.237 79.3857L616.393 80.7759C703.29 83.5119 763.671 167.408 733.172 243.036V243.036" stroke="white" stroke-opacity="0.15" stroke-width="0.653416"/>
<path d="M300.247 -407.936L318.228 -407.249C446.468 -402.342 525.369 -267.546 459.266 -166.293L449.612 -151.506C387.472 -56.3222 462.209 70.3181 582.763 74.1138L626.919 75.5041C713.816 78.2401 774.196 162.137 743.698 237.764V237.764" stroke="white" stroke-opacity="0.15" stroke-width="0.653416"/>
<path d="M310.777 -413.212L328.758 -412.524C456.998 -407.618 535.898 -272.821 469.796 -171.568L460.142 -156.781C398.002 -61.5974 472.739 65.043 593.292 68.8387L637.449 70.2289C724.346 72.9649 784.726 156.861 754.228 232.489V232.489" stroke="white" stroke-opacity="0.15" stroke-width="0.653416"/>
<path d="M321.305 -418.484L339.285 -417.796C467.525 -412.89 546.426 -278.093 480.324 -176.841L470.67 -162.054C408.529 -66.8698 483.267 59.7706 603.82 63.5663L647.976 64.9565C734.873 67.6925 795.254 151.589 764.755 227.217V227.217" stroke="white" stroke-opacity="0.15" stroke-width="0.653416"/>
<path d="M331.834 -423.757L349.815 -423.069C478.055 -418.163 556.955 -283.366 490.853 -182.113L481.199 -167.326C419.059 -72.1425 493.796 54.4978 614.349 58.2935L658.506 59.6838C745.403 62.4198 805.783 146.316 775.285 221.944V221.944" stroke="white" stroke-opacity="0.15" stroke-width="0.653416"/>
<path d="M342.362 -429.031L360.343 -428.343C488.583 -423.437 567.484 -288.64 501.381 -187.387L491.727 -172.6C429.587 -77.4164 504.324 49.224 624.878 53.0196L669.034 54.4099C755.931 57.1459 816.312 141.042 785.813 216.67V216.67" stroke="white" stroke-opacity="0.15" stroke-width="0.653416"/>
<path d="M352.89 -434.301L370.871 -433.613C499.111 -428.707 578.012 -293.91 511.909 -192.658L502.255 -177.871C440.115 -82.6871 514.852 43.9533 635.406 47.7489L679.562 49.1392C766.459 51.8752 826.839 135.772 796.341 211.399V211.399" stroke="white" stroke-opacity="0.15" stroke-width="0.653416"/>
<path d="M363.417 -439.575L381.398 -438.887C509.638 -433.981 588.538 -299.185 522.436 -197.932L512.782 -183.145C450.642 -87.9612 525.379 38.6792 645.933 42.4748L690.089 43.8651C776.986 46.6011 837.366 130.498 806.868 206.125V206.125" stroke="white" stroke-opacity="0.15" stroke-width="0.653416"/>
<path d="M373.945 -444.849L391.926 -444.161C520.166 -439.255 599.067 -304.458 532.964 -203.206L523.31 -188.418C461.17 -93.2346 535.907 33.4057 656.461 37.2014L700.617 38.5917C787.514 41.3277 847.894 125.224 817.396 200.852V200.852" stroke="white" stroke-opacity="0.15" stroke-width="0.653416"/>
<path d="M384.224 -449.998L402.205 -449.31C530.445 -444.404 609.346 -309.607 543.243 -208.355L533.59 -193.567C471.449 -98.3836 546.186 28.2567 666.74 32.0524L710.896 33.4427C797.793 36.1787 858.174 120.075 827.675 195.703V195.703" stroke="white" stroke-opacity="0.15" stroke-width="0.653416"/>
<path d="M394.504 -455.145L412.484 -454.457C540.724 -449.551 619.625 -314.754 553.523 -213.502L543.869 -198.715C481.728 -103.531 556.466 23.1093 677.019 26.905L721.175 28.2953C808.073 31.0313 868.453 114.928 837.954 190.555V190.555" stroke="white" stroke-opacity="0.15" stroke-width="0.653416"/>
<path d="M404.782 -460.294L422.763 -459.606C551.003 -454.7 629.903 -319.904 563.801 -218.651L554.147 -203.864C492.007 -108.68 566.744 17.9602 687.298 21.7558L731.454 23.1461C818.351 25.8821 878.731 109.779 848.233 185.406V185.406" stroke="white" stroke-opacity="0.15" stroke-width="0.653416"/>
<path d="M415.061 -465.443L433.042 -464.755C561.282 -459.849 640.183 -325.052 574.08 -223.799L564.426 -209.012C502.286 -113.828 577.023 12.812 697.577 16.6076L741.733 17.9979C828.63 20.7339 889.01 104.63 858.512 180.258V180.258" stroke="white" stroke-opacity="0.15" stroke-width="0.653416"/>
<path d="M425.338 -470.59L443.319 -469.903C571.559 -464.996 650.46 -330.2 584.357 -228.947L574.703 -214.16C512.563 -118.976 587.3 7.66415 707.854 11.4598L752.01 12.8501C838.907 15.5861 899.287 99.4825 868.789 175.11V175.11" stroke="white" stroke-opacity="0.15" stroke-width="0.653416"/>
<path d="M435.616 -475.739L453.597 -475.051C581.837 -470.145 660.738 -335.348 594.635 -234.096L584.982 -219.308C522.841 -124.125 597.578 2.51577 718.132 6.31144L762.288 7.70172C849.185 10.4377 909.566 94.3342 879.067 169.962V169.962" stroke="white" stroke-opacity="0.15" stroke-width="0.653416"/>
<path d="M445.897 -480.888L463.878 -480.2C592.118 -475.294 671.019 -340.497 604.916 -239.244L595.262 -224.457C533.122 -129.273 607.859 -2.63297 728.413 1.1627L772.569 2.55298C859.466 5.28896 919.847 89.1854 889.348 164.813V164.813" stroke="white" stroke-opacity="0.15" stroke-width="0.653416"/>
<path d="M456.175 -486.035L474.156 -485.348C602.396 -480.442 681.297 -345.645 615.194 -244.392L605.541 -229.605C543.4 -134.421 618.137 -7.78092 738.691 -3.98525L782.847 -2.59497C869.744 0.141015 930.125 84.0375 899.626 159.665V159.665" stroke="white" stroke-opacity="0.15" stroke-width="0.653416"/>
<path d="M466.454 -491.185L484.434 -490.497C612.674 -485.591 691.575 -350.794 625.473 -249.542L615.819 -234.755C553.678 -139.571 628.416 -12.9305 748.969 -9.13485L793.125 -7.74457C880.022 -5.00858 940.403 78.8879 909.904 154.515V154.515" stroke="white" stroke-opacity="0.15" stroke-width="0.653416"/>
<path d="M476.733 -496.333L494.714 -495.645C622.954 -490.739 701.855 -355.942 635.752 -254.69L626.099 -239.902C563.958 -144.719 638.695 -18.0782 759.249 -14.2826L803.405 -12.8923C890.302 -10.1563 950.683 73.7402 920.184 149.368V149.368" stroke="white" stroke-opacity="0.15" stroke-width="0.653416"/>
<path d="M487.012 -501.481L504.993 -500.793C633.233 -495.887 712.134 -361.09 646.031 -259.838L636.378 -245.051C574.237 -149.867 648.974 -23.2265 769.528 -19.4308L813.684 -18.0405C900.581 -15.3045 960.962 68.5919 930.463 144.219V144.219" stroke="white" stroke-opacity="0.15" stroke-width="0.653416"/>
<path d="M497.292 -506.63L515.272 -505.942C643.512 -501.036 722.413 -366.239 656.311 -264.986L646.657 -250.199C584.516 -155.015 659.254 -28.3751 779.807 -24.5794L823.963 -23.1892C910.86 -20.4532 971.241 63.4433 940.742 139.071V139.071" stroke="white" stroke-opacity="0.15" stroke-width="0.653416"/>
<path d="M507.569 -511.778L525.549 -511.09C653.789 -506.184 732.69 -371.387 666.588 -270.135L656.934 -255.347C594.793 -160.164 669.531 -33.5233 790.084 -29.7276L834.24 -28.3373C921.137 -25.6014 981.518 58.2951 951.019 133.923V133.923" stroke="white" stroke-opacity="0.15" stroke-width="0.653416"/>
<path d="M517.848 -516.925L535.828 -516.237C664.068 -511.331 742.969 -376.534 676.867 -275.282L667.213 -260.495C605.072 -165.311 679.81 -38.6707 800.363 -34.8751L844.519 -33.4848C931.416 -30.7488 991.797 53.1476 961.298 128.775V128.775" stroke="white" stroke-opacity="0.15" stroke-width="0.653416"/>
</svg>
