<svg width="24" height="24" viewBox="0 0 24 24" fill="none" xmlns="http://www.w3.org/2000/svg">
<mask id="mask0_1_338" style="mask-type:alpha" maskUnits="userSpaceOnUse" x="1" y="3" width="22" height="20">
<path d="M10 16.5L13 17.5C13 17.5 20.5 16 21.5 16C22.5 16 22.5 17 21.5 18C20.5 19 17 22 14 22C11 22 9 20.5 7 20.5H2" stroke="white" stroke-width="1.15" stroke-linecap="round" stroke-linejoin="round"/>
<path d="M8 9V5C8 4.73478 8.10536 4.48043 8.29289 4.29289C8.48043 4.10536 8.73478 4 9 4H21C21.2652 4 21.5196 4.10536 21.7071 4.29289C21.8946 4.48043 22 4.73478 22 5V13M2 14.5C3 13.5 5 12 7 12C9 12 13.75 14 14.5 15C15.25 16 13 17.5 13 17.5L2 14.5Z" stroke="white" stroke-width="1.15" stroke-linecap="round" stroke-linejoin="round"/>
<path d="M12.5 4H17.5V8.5H12.5V4Z" fill="white" stroke="white" stroke-width="1.15" stroke-linecap="round" stroke-linejoin="round"/>
</mask>
<g mask="url(#mask0_1_338)">
<path d="M0 0H24V24H0V0Z" fill="#2E6C00"/>
</g>
</svg>
