<svg width="24" height="24" viewBox="0 0 24 24" fill="none" xmlns="http://www.w3.org/2000/svg">
<path d="M14.5858 3.58579L15.1161 3.05546V3.05546L14.5858 3.58579ZM18.4142 7.41421L17.8839 7.94454L18.4142 7.41421ZM18.9239 8.03153L19.6168 7.74452L19.6168 7.74452L18.9239 8.03153ZM18.4142 20.4142L17.8839 19.8839L17.8839 19.8839L18.4142 20.4142ZM9 3.75H13.1716V2.25H9V3.75ZM15 20.25H9V21.75H15V20.25ZM5.75 17V7H4.25V17H5.75ZM18.25 8.82843V17H19.75V8.82843H18.25ZM14.0555 4.11612L17.8839 7.94454L18.9445 6.88388L15.1161 3.05546L14.0555 4.11612ZM19.75 8.82843C19.75 8.48087 19.7633 8.09817 19.6168 7.74452L18.231 8.31854C18.231 8.31859 18.2311 8.31886 18.2314 8.31982C18.2317 8.32086 18.2325 8.3237 18.2336 8.32903C18.236 8.34028 18.2396 8.36225 18.2426 8.40246C18.2495 8.49272 18.25 8.61307 18.25 8.82843H19.75ZM17.8839 7.94454C18.0362 8.09683 18.1209 8.18228 18.1799 8.25095C18.2062 8.28154 18.2191 8.29962 18.2254 8.30923C18.2284 8.31379 18.2299 8.31637 18.2304 8.31733C18.2308 8.31822 18.2309 8.31849 18.231 8.31854L19.6168 7.74452C19.4703 7.39087 19.1903 7.12964 18.9445 6.88388L17.8839 7.94454ZM9 20.25C8.03599 20.25 7.38843 20.2484 6.90539 20.1835C6.44393 20.1214 6.24643 20.0142 6.11612 19.8839L5.05546 20.9445C5.51093 21.4 6.07773 21.5857 6.70552 21.6701C7.31174 21.7516 8.07839 21.75 9 21.75V20.25ZM4.25 17C4.25 17.9216 4.24841 18.6883 4.32991 19.2945C4.41432 19.9223 4.59999 20.4891 5.05546 20.9445L6.11612 19.8839C5.9858 19.7536 5.87858 19.5561 5.81654 19.0946C5.75159 18.6116 5.75 17.964 5.75 17H4.25ZM15 21.75C15.9216 21.75 16.6883 21.7516 17.2945 21.6701C17.9223 21.5857 18.4891 21.4 18.9445 20.9445L17.8839 19.8839C17.7536 20.0142 17.5561 20.1214 17.0946 20.1835C16.6116 20.2484 15.964 20.25 15 20.25V21.75ZM18.25 17C18.25 17.964 18.2484 18.6116 18.1835 19.0946C18.1214 19.5561 18.0142 19.7536 17.8839 19.8839L18.9445 20.9445C19.4 20.4891 19.5857 19.9223 19.6701 19.2945C19.7516 18.6883 19.75 17.9216 19.75 17H18.25ZM13.1716 3.75C13.3869 3.75 13.5073 3.7505 13.5975 3.75736C13.6377 3.76041 13.6597 3.76401 13.671 3.76635C13.6763 3.76746 13.6791 3.76828 13.6802 3.7686C13.6811 3.76889 13.6814 3.76901 13.6815 3.76903L14.2555 2.38321C13.9018 2.23672 13.5191 2.25 13.1716 2.25V3.75ZM15.1161 3.05546C14.8704 2.8097 14.6091 2.5297 14.2555 2.38321L13.6815 3.76903C13.6815 3.76905 13.6818 3.76915 13.6827 3.76963C13.6836 3.77014 13.6862 3.77157 13.6908 3.77456C13.7004 3.78085 13.7185 3.79385 13.7491 3.82012C13.8177 3.87909 13.9032 3.96383 14.0555 4.11612L15.1161 3.05546ZM9 2.25C8.07839 2.25 7.31174 2.24841 6.70552 2.32991C6.07773 2.41432 5.51093 2.59999 5.05546 3.05546L6.11612 4.11612C6.24643 3.9858 6.44393 3.87858 6.90539 3.81654C7.38843 3.75159 8.03599 3.75 9 3.75V2.25ZM5.75 7C5.75 6.03599 5.75159 5.38843 5.81654 4.90539C5.87858 4.44393 5.9858 4.24643 6.11612 4.11612L5.05546 3.05546C4.59999 3.51093 4.41432 4.07773 4.32991 4.70552C4.24841 5.31174 4.25 6.07839 4.25 7H5.75Z" fill="#191919"/>
<path d="M9 13L15 13" stroke="#191919" stroke-width="1.5" stroke-linecap="round"/>
<path d="M9 17L13 17" stroke="#191919" stroke-width="1.5" stroke-linecap="round"/>
<path d="M13.2929 8.70711L13.8232 8.17678L13.2929 8.70711ZM12.25 3V7H13.75V3H12.25ZM15 9.75H19V8.25H15V9.75ZM12.25 7C12.25 7.4502 12.2484 7.8633 12.2933 8.19721C12.3411 8.55269 12.4535 8.92841 12.7626 9.23744L13.8232 8.17678C13.8228 8.17632 13.8228 8.1763 13.8231 8.17665C13.8234 8.177 13.8235 8.17724 13.8235 8.17717C13.8234 8.17708 13.8229 8.17624 13.8219 8.17433C13.8209 8.1724 13.8192 8.16908 13.8172 8.16404C13.8082 8.14226 13.7929 8.09389 13.7799 7.99734C13.7516 7.78661 13.75 7.49261 13.75 7H12.25ZM15 8.25C14.5074 8.25 14.2134 8.24841 14.0027 8.22008C13.9061 8.20709 13.8577 8.1918 13.836 8.18284C13.8309 8.18077 13.8276 8.17915 13.8257 8.17814C13.8238 8.17714 13.8229 8.17659 13.8228 8.17653C13.8228 8.17649 13.823 8.17665 13.8234 8.17693C13.8237 8.17721 13.8237 8.17723 13.8232 8.17678L12.7626 9.23744C13.0716 9.54646 13.4473 9.65891 13.8028 9.7067C14.1367 9.75159 14.5498 9.75 15 9.75V8.25Z" fill="#191919"/>
</svg>
