<svg width="24" height="24" viewBox="0 0 24 24" fill="none" xmlns="http://www.w3.org/2000/svg">
<path fill-rule="evenodd" clip-rule="evenodd" d="M7.75 10.6368C7.75 6.90892 10.7721 3.88684 14.5 3.88684C18.2279 3.88684 21.25 6.90892 21.25 10.6368C21.25 13.0671 20.0044 15.0498 18.4992 16.5591C16.9949 18.0674 15.2957 19.0354 14.554 19.4179C14.5165 19.4373 14.4835 19.4373 14.446 19.4179C13.7043 19.0354 12.0051 18.0674 10.5008 16.5591C9.40043 15.4557 8.4388 14.0994 8.00113 12.5001H9.8C9.91046 12.5001 10 12.4106 10 12.3001V11.2001C10 11.0897 9.91046 11.0001 9.8 11.0001H7.75933C7.75315 10.8802 7.75 10.7591 7.75 10.6368ZM6.25763 11.0001C6.25258 10.8801 6.25 10.759 6.25 10.6368C6.25 10.2512 6.27646 9.8717 6.32767 9.50012H1.2C1.08954 9.50012 1 9.41058 1 9.30012V8.20012C1 8.08967 1.08954 8.00012 1.2 8.00012H6.68033C7.78028 4.73681 10.8657 2.38684 14.5 2.38684C19.0563 2.38684 22.75 6.08049 22.75 10.6368C22.75 13.614 21.2196 15.9555 19.5613 17.6183C17.902 19.282 16.0502 20.3341 15.2415 20.7511C14.7727 20.9929 14.2273 20.9929 13.7585 20.7511C12.9498 20.3341 11.098 19.282 9.43871 17.6183C8.82618 17.0041 8.2311 16.2973 7.72415 15.5001H2.7C2.58954 15.5001 2.5 15.4106 2.5 15.3001V14.2001C2.5 14.0897 2.58954 14.0001 2.7 14.0001H6.93551C6.73604 13.5247 6.57252 13.0246 6.45528 12.5001H4.2C4.08954 12.5001 4 12.4106 4 12.3001V11.2001C4 11.0897 4.08954 11.0001 4.2 11.0001H6.25763ZM12.0371 10.6368C12.0371 9.27578 13.1404 8.17249 14.5014 8.17249C15.8624 8.17249 16.9657 9.27578 16.9657 10.6368C16.9657 11.9978 15.8624 13.1011 14.5014 13.1011C13.1404 13.1011 12.0371 11.9978 12.0371 10.6368ZM14.5014 6.67249C12.312 6.67249 10.5371 8.44736 10.5371 10.6368C10.5371 12.8262 12.312 14.6011 14.5014 14.6011C16.6908 14.6011 18.4657 12.8262 18.4657 10.6368C18.4657 8.44736 16.6908 6.67249 14.5014 6.67249Z" fill="#191919"/>
</svg>
