<svg width="24" height="24" viewBox="0 0 24 24" fill="none" xmlns="http://www.w3.org/2000/svg">
<g clip-path="url(#clip0_1_454)">
<path d="M19.9347 9.52566C19.9347 5.36935 16.606 2 12.4999 2C8.39376 2 5.0651 5.36935 5.0651 9.52566C4.00357 9.65945 2.99988 10.3618 2.99988 11.9924V15.9225C2.99988 17.7621 4.27205 18.431 5.47814 18.431H6.67596C6.90407 18.431 7.08901 18.2438 7.08901 18.0129V9.91866C7.08901 9.68777 6.90407 9.50057 6.67596 9.50057H5.89118C5.89118 5.8061 8.85002 2.8111 12.4999 2.8111C16.1497 2.8111 19.1086 5.8061 19.1086 9.50057H18.3238C18.0957 9.50057 17.9107 9.68777 17.9107 9.91866V18.0004C17.9107 18.2313 18.0957 18.4185 18.3238 18.4185H19.1086C18.9929 21.2908 17.6299 21.9639 14.9079 22.0851V21.805C14.9079 21.3432 14.5381 20.9688 14.0818 20.9688H11.4838C11.0275 20.9688 10.6577 21.3432 10.6577 21.805V23.1638C10.6577 23.6257 11.0275 24 11.4838 24H14.0901C14.5464 24 14.9162 23.6257 14.9162 23.1638V22.9213C17.5349 22.8001 19.7984 22.2524 19.9347 18.3934C20.9962 18.2596 21.9999 17.5572 21.9999 15.9266V11.9966C21.9999 10.3577 21.0003 9.65945 19.9347 9.52566ZM6.26292 10.3075V17.5823H5.45749C4.84618 17.5823 3.80531 17.3649 3.80531 15.9099V11.9799C3.80531 10.5374 4.83379 10.3075 5.45749 10.3075H6.26292ZM14.0901 22.5325V23.168H11.4838V21.8092H14.0901V22.5325ZM21.1738 15.9225C21.1738 17.3649 20.1453 17.5948 19.5216 17.5948H18.7368V10.3368H19.5423C20.1536 10.3368 21.1944 10.5542 21.1944 12.0091L21.1738 15.9225Z" fill="#191919" stroke="#191919" stroke-width="0.7"/>
</g>
<defs>
<clipPath id="clip0_1_454">
<rect width="24" height="24" fill="white"/>
</clipPath>
</defs>
</svg>
