<svg width="24" height="24" viewBox="0 0 24 24" fill="none" xmlns="http://www.w3.org/2000/svg">
<path d="M13.25 3C12.0465 2.96563 10.8484 3.173 9.72643 3.60984C8.6045 4.04669 7.58158 4.70412 6.7182 5.54326C5.85483 6.38239 5.16853 7.38617 4.69993 8.49521C4.23132 9.60426 3.98992 10.796 3.99001 12H2.20001C1.75001 12 1.53001 12.54 1.85001 12.85L4.64001 15.65C4.84001 15.85 5.15001 15.85 5.35001 15.65L8.14001 12.85C8.46001 12.54 8.23001 12 7.79001 12H5.99001C5.99001 8.1 9.17001 4.95 13.09 5C16.81 5.05 19.94 8.18 19.99 11.9C20.04 15.81 16.89 19 12.99 19C11.38 19 9.89001 18.45 8.71001 17.52C8.51847 17.3691 8.27815 17.2939 8.03477 17.3086C7.79139 17.3234 7.56192 17.4271 7.39001 17.6C6.97001 18.03 7.00001 18.73 7.47001 19.1C9.04522 20.3338 10.9891 21.0029 12.99 21C18.04 21 22.13 16.83 21.99 11.74C21.86 7.05 17.94 3.13 13.25 3ZM12.74 8C12.33 8 11.99 8.34 11.99 8.75V12.43C11.99 12.78 12.18 13.11 12.48 13.29L15.6 15.14C15.96 15.35 16.42 15.23 16.63 14.88C16.84 14.52 16.72 14.06 16.37 13.85L13.49 12.14V8.74C13.49 8.34 13.16 8 12.74 8Z" fill="#0081A0"/>
</svg>
