<svg width="155" height="38" viewBox="0 0 155 38" fill="none" xmlns="http://www.w3.org/2000/svg">
<path d="M40.6344 16.1601C39.5996 16.1601 38.6805 15.9827 37.8774 15.628C37.0742 15.2733 36.4332 14.7952 35.9698 14.1784C35.5837 13.6772 35.3442 13.1297 35.2361 12.5282C35.213 12.4203 35.2438 12.32 35.3134 12.2429C35.3829 12.1581 35.4755 12.1119 35.5837 12.1119H38.4797C38.6342 12.1119 38.7732 12.2121 38.8195 12.3663C38.9045 12.667 39.0744 12.9061 39.3447 13.1066C39.6845 13.361 40.1015 13.4921 40.5958 13.4921C41.0437 13.4921 41.399 13.3996 41.6461 13.2222C41.8933 13.0449 42.0168 12.8213 42.0168 12.536C42.0168 12.1967 41.8392 11.9499 41.4839 11.788C41.1287 11.6184 40.5572 11.441 39.7617 11.2405C38.9199 11.0478 38.2094 10.8396 37.6457 10.6159C37.0742 10.4 36.5876 10.053 36.1783 9.58268C35.769 9.10461 35.5605 8.47232 35.5605 7.66267C35.5605 6.98411 35.7536 6.36724 36.1243 5.81206C36.5027 5.24916 37.051 4.80964 37.7847 4.48578C38.5106 4.16193 39.3756 4 40.3796 4C41.8701 4 43.0362 4.36241 43.8935 5.10266C44.6503 5.75037 45.1214 6.58315 45.3068 7.6087C45.3299 7.71665 45.299 7.81689 45.2295 7.894C45.16 7.97882 45.0674 8.02508 44.9592 8.02508H42.3026C42.1404 8.02508 42.0091 7.92484 41.9628 7.77063C41.8778 7.47761 41.7156 7.23857 41.4762 7.0458C41.1673 6.80676 40.7734 6.6911 40.2714 6.6911C39.8467 6.6911 39.5223 6.76821 39.2984 6.93014C39.0744 7.09206 38.9586 7.31568 38.9586 7.60098C38.9586 7.94026 39.1362 8.19472 39.4992 8.36436C39.8621 8.534 40.4259 8.70364 41.1905 8.87328C42.0632 9.0969 42.7814 9.32052 43.3297 9.53642C43.8858 9.76004 44.3646 10.107 44.7816 10.6005C45.1986 11.0863 45.4149 11.7417 45.4303 12.5591C45.4303 13.2531 45.2373 13.8699 44.8511 14.4097C44.4573 14.9572 43.9012 15.3813 43.1675 15.6897C42.4416 16.0059 41.5998 16.1601 40.6344 16.1601Z" fill="#52A415"/>
<path d="M46.0781 10.0608C46.0781 8.84244 46.3098 7.77834 46.7655 6.86074C47.2288 5.94314 47.8544 5.23374 48.6421 4.74024C49.4376 4.24675 50.318 4 51.2988 4C52.1329 4 52.8665 4.16964 53.4921 4.50892C54.1254 4.8482 54.6042 5.28772 54.944 5.8429V4.52434C54.944 4.32386 55.1062 4.16963 55.2993 4.16963H58.2185C58.4193 4.16963 58.5738 4.32386 58.5738 4.52434V15.9904H54.944V14.3172C54.5965 14.8646 54.1022 15.3119 53.4689 15.6512C52.8434 15.9904 52.1097 16.1601 51.2756 16.1601C50.318 16.1601 49.4376 15.9056 48.6421 15.4044C47.8544 14.9032 47.2288 14.1938 46.7655 13.2685C46.3098 12.3432 46.0781 11.2714 46.0781 10.0608ZM54.944 10.0762C54.944 9.17401 54.6969 8.46461 54.1949 7.94027C53.6929 7.41593 53.0828 7.15375 52.3568 7.15375C51.6386 7.15375 51.0285 7.41592 50.5265 7.92484C50.0245 8.44147 49.7697 9.15088 49.7697 10.0608C49.7697 10.9629 50.0245 11.68 50.5265 12.2121C51.0285 12.7364 51.6386 13.0063 52.3568 13.0063C53.0828 13.0063 53.6929 12.7441 54.1949 12.2198C54.6969 11.6955 54.944 10.9861 54.944 10.0762Z" fill="#52A415"/>
<path d="M75.4556 4.04004C76.9307 4.04004 78.0968 4.48727 78.9695 5.37403C79.8345 6.2685 80.2747 7.50224 80.2747 9.08298V15.6373C80.2747 15.83 80.1125 15.992 79.9194 15.992H77.0156C76.8225 15.992 76.6681 15.83 76.6681 15.6373V9.56876C76.6681 8.81309 76.4673 8.21936 76.058 7.80297C75.6564 7.38658 75.1003 7.17838 74.3975 7.17838C73.687 7.17838 73.131 7.38658 72.7294 7.80297C72.3278 8.21936 72.127 8.81309 72.127 9.56876V15.6373C72.127 15.83 71.9648 15.992 71.7718 15.992H68.868C68.6749 15.992 68.5204 15.83 68.5204 15.6373V9.56876C68.5204 8.81309 68.3119 8.21936 67.9103 7.80297C67.5087 7.38658 66.9527 7.17838 66.2499 7.17838C65.5394 7.17838 64.9833 7.38658 64.5818 7.80297C64.1802 8.21936 63.9794 8.81309 63.9794 9.56876V15.6373C63.9794 15.83 63.8172 15.992 63.6241 15.992H60.7049C60.5041 15.992 60.3496 15.83 60.3496 15.6373V4.52583C60.3496 4.32535 60.5041 4.17112 60.7049 4.17112H63.6241C63.8172 4.17112 63.9794 4.32535 63.9794 4.52583V5.65162C64.3423 5.15812 64.8212 4.76486 65.4158 4.47956C66.0105 4.18655 66.6824 4.04004 67.4315 4.04004C68.3274 4.04004 69.1228 4.23282 69.8256 4.61065C70.5207 4.9962 71.069 5.53596 71.4628 6.24536C71.8799 5.59764 72.4359 5.06559 73.1464 4.65691C73.8492 4.24824 74.6215 4.04004 75.4556 4.04004Z" fill="#52A415"/>
<path d="M81.2402 10.0608C81.2402 8.84244 81.4719 7.77834 81.9276 6.86074C82.3909 5.94314 83.0165 5.23374 83.8042 4.74024C84.5997 4.24675 85.4801 4 86.4609 4C87.295 4 88.0287 4.16964 88.6542 4.50892C89.2875 4.8482 89.7663 5.28772 90.1061 5.8429V4.52434C90.1061 4.32386 90.2683 4.16963 90.4614 4.16963H93.3806C93.5814 4.16963 93.7359 4.32386 93.7359 4.52434V15.6357C93.7359 15.8285 93.5814 15.9904 93.3806 15.9904H90.4614C90.2683 15.9904 90.1061 15.8285 90.1061 15.6357V14.3172C89.7509 14.8646 89.2643 15.3119 88.631 15.6512C88.0055 15.9904 87.2718 16.1601 86.4377 16.1601C85.4724 16.1601 84.5997 15.9056 83.8042 15.4044C83.0165 14.9032 82.3909 14.1938 81.9276 13.2685C81.4719 12.3432 81.2402 11.2714 81.2402 10.0608ZM90.1061 10.0762C90.1061 9.17401 89.859 8.46461 89.357 7.94027C88.855 7.41593 88.2372 7.15375 87.5189 7.15375C86.8007 7.15375 86.1829 7.41592 85.6809 7.92484C85.1789 8.44147 84.9318 9.15088 84.9318 10.0608C84.9318 10.9629 85.1789 11.68 85.6809 12.2121C86.1829 12.7364 86.8007 13.0063 87.5189 13.0063C88.2372 13.0063 88.855 12.7441 89.357 12.2198C89.859 11.6955 90.1061 10.9861 90.1061 10.0762Z" fill="#52A415"/>
<path d="M107.397 4.66342L100.269 21.3883C100.215 21.5194 100.092 21.6042 99.9448 21.6042H96.817C96.6934 21.6042 96.593 21.5503 96.5235 21.4423C96.454 21.3421 96.4463 21.2187 96.5004 21.103L98.9871 15.5897L94.3766 4.65571C94.3302 4.54776 94.3457 4.42438 94.4074 4.32414C94.477 4.2239 94.5851 4.16992 94.7009 4.16992H97.9754C98.1299 4.16992 98.2612 4.25474 98.3075 4.40125L100.964 11.5647L103.59 4.40125C103.644 4.25474 103.775 4.16992 103.922 4.16992H107.065C107.189 4.16992 107.297 4.2239 107.366 4.32414C107.428 4.4321 107.444 4.54776 107.397 4.66342Z" fill="#52A415"/>
<path d="M107.336 10.0608C107.336 8.84244 107.568 7.77834 108.031 6.86074C108.487 5.94314 109.112 5.23374 109.908 4.74024C110.695 4.24675 111.584 4 112.557 4C113.391 4 114.124 4.16964 114.758 4.50892C115.383 4.8482 115.87 5.28772 116.21 5.8429V4.52434C116.21 4.32386 116.364 4.16963 116.565 4.16963H119.484C119.677 4.16963 119.839 4.32386 119.839 4.52434V15.6357C119.839 15.8285 119.677 15.9904 119.484 15.9904H116.565C116.364 15.9904 116.21 15.8285 116.21 15.6357V14.3172C115.854 14.8646 115.36 15.3119 114.734 15.6512C114.101 15.9904 113.375 16.1601 112.541 16.1601C111.576 16.1601 110.695 15.9056 109.908 15.4044C109.112 14.9032 108.487 14.1938 108.031 13.2685C107.568 12.3432 107.336 11.2714 107.336 10.0608ZM116.21 10.0762C116.21 9.17401 115.955 8.46461 115.453 7.94027C114.951 7.41593 114.341 7.15375 113.622 7.15375C112.896 7.15375 112.286 7.41592 111.784 7.92484C111.282 8.44147 111.027 9.15088 111.027 10.0608C111.027 10.9629 111.282 11.68 111.784 12.2121C112.286 12.7364 112.896 13.0063 113.622 13.0063C114.341 13.0063 114.951 12.7441 115.453 12.2198C115.955 11.6955 116.21 10.9861 116.21 10.0762Z" fill="#52A415"/>
<path d="M136.713 4.04004C138.188 4.04004 139.362 4.48727 140.227 5.37403C141.1 6.2685 141.532 7.50224 141.532 9.08298V15.6373C141.532 15.83 141.378 15.992 141.177 15.992H138.281C138.088 15.992 137.926 15.83 137.926 15.6373V9.56876C137.926 8.81309 137.725 8.21936 137.323 7.80297C136.922 7.38658 136.366 7.17838 135.655 7.17838C134.953 7.17838 134.397 7.38658 133.987 7.80297C133.586 8.21936 133.385 8.81309 133.385 9.56876V15.6373C133.385 15.83 133.23 15.992 133.03 15.992H130.133C129.94 15.992 129.778 15.83 129.778 15.6373V9.56876C129.778 8.81309 129.577 8.21936 129.176 7.80297C128.767 7.38658 128.218 7.17838 127.508 7.17838C126.797 7.17838 126.249 7.38658 125.84 7.80297C125.438 8.21936 125.237 8.81309 125.237 9.56876V15.6373C125.237 15.83 125.075 15.992 124.882 15.992H121.963C121.77 15.992 121.607 15.83 121.607 15.6373V4.52583C121.607 4.32535 121.77 4.17112 121.963 4.17112H124.882C125.075 4.17112 125.237 4.32535 125.237 4.52583V5.65162C125.608 5.15812 126.087 4.76486 126.681 4.47956C127.276 4.18655 127.948 4.04004 128.697 4.04004C129.585 4.04004 130.381 4.23282 131.083 4.61065C131.786 4.9962 132.335 5.53596 132.728 6.24536C133.138 5.59764 133.694 5.06559 134.404 4.65691C135.115 4.24824 135.879 4.04004 136.713 4.04004Z" fill="#52A415"/>
<path d="M142.496 10.0608C142.496 8.84244 142.728 7.77834 143.191 6.86074C143.647 5.94314 144.272 5.23374 145.068 4.74024C145.856 4.24675 146.744 4 147.717 4C148.551 4 149.285 4.16964 149.918 4.50892C150.543 4.8482 151.03 5.28772 151.37 5.8429V4.52434C151.37 4.32386 151.524 4.16963 151.725 4.16963H154.644C154.837 4.16963 154.999 4.32386 154.999 4.52434V15.6357C154.999 15.8285 154.837 15.9904 154.644 15.9904H151.725C151.524 15.9904 151.37 15.8285 151.37 15.6357V14.3172C151.014 14.8646 150.52 15.3119 149.895 15.6512C149.261 15.9904 148.528 16.1601 147.694 16.1601C146.736 16.1601 145.856 15.9056 145.068 15.4044C144.272 14.9032 143.647 14.1938 143.191 13.2685C142.728 12.3432 142.496 11.2714 142.496 10.0608ZM151.37 10.0762C151.37 9.17401 151.115 8.46461 150.613 7.94027C150.111 7.41593 149.501 7.15375 148.783 7.15375C148.057 7.15375 147.446 7.41592 146.944 7.92484C146.442 8.44147 146.188 9.15088 146.188 10.0608C146.188 10.9629 146.442 11.68 146.944 12.2121C147.446 12.7364 148.057 13.0063 148.783 13.0063C149.501 13.0063 150.111 12.7441 150.613 12.2198C151.115 11.6955 151.37 10.9861 151.37 10.0762Z" fill="#52A415"/>
<path fill-rule="evenodd" clip-rule="evenodd" d="M0.469917 15.3274L24.9689 0.0779917C25.166 -0.0440386 25.4113 -0.0222475 25.5821 0.139007C25.7485 0.295903 25.7836 0.539963 25.6741 0.740442L17.7458 14.8306L14.7365 13.3357C14.6752 13.3052 14.6095 13.3052 14.5438 13.3357L10.1022 15.5453C10.0277 15.5846 9.9839 15.6543 9.9839 15.7371V21.4812C9.9839 21.5422 9.95324 21.5945 9.90505 21.625C9.85249 21.6556 9.79554 21.6599 9.74298 21.6338L0.553144 17.062C0.220242 16.8964 0.018748 16.5869 0.00122685 16.2165C-0.0162943 15.8504 0.154537 15.5235 0.469917 15.3274ZM4.31143 37.3103L28.8104 22.0304C29.1257 21.8342 29.2966 21.5074 29.2791 21.1369C29.2615 20.7708 29.06 20.4614 28.7271 20.2958L19.5417 15.724C19.4891 15.6979 19.4278 15.7022 19.3796 15.7327C19.327 15.7632 19.3008 15.8155 19.3008 15.8722V21.6512C19.3008 21.734 19.2526 21.8081 19.1825 21.843L14.7365 24.0526C14.6752 24.0831 14.6095 24.0831 14.5438 24.0526L13.0895 23.3291V17.1492L17.7458 14.8306L16.1951 14.0592L11.6528 16.3167C11.5783 16.356 11.5345 16.4257 11.5345 16.5085V22.5577L3.61058 36.6435C3.4967 36.844 3.53612 37.088 3.70257 37.2493C3.86902 37.4062 4.11869 37.4323 4.31143 37.3103Z" fill="#52A415"/>
<path d="M45.408 23.696V32H44.316V25.808L41.556 32H40.788L38.016 25.796V32H36.924V23.696H38.1L41.172 30.56L44.244 23.696H45.408ZM55.0599 28.46C55.0599 28.668 55.0479 28.888 55.0239 29.12H49.7679C49.8079 29.768 50.0279 30.276 50.4279 30.644C50.8359 31.004 51.3279 31.184 51.9039 31.184C52.3759 31.184 52.7679 31.076 53.0799 30.86C53.3999 30.636 53.6239 30.34 53.7519 29.972H54.9279C54.7519 30.604 54.3999 31.12 53.8719 31.52C53.3439 31.912 52.6879 32.108 51.9039 32.108C51.2799 32.108 50.7199 31.968 50.2239 31.688C49.7359 31.408 49.3519 31.012 49.0719 30.5C48.7919 29.98 48.6519 29.38 48.6519 28.7C48.6519 28.02 48.7879 27.424 49.0599 26.912C49.3319 26.4 49.7119 26.008 50.1999 25.736C50.6959 25.456 51.2639 25.316 51.9039 25.316C52.5279 25.316 53.0799 25.452 53.5599 25.724C54.0399 25.996 54.4079 26.372 54.6639 26.852C54.9279 27.324 55.0599 27.86 55.0599 28.46ZM53.9319 28.232C53.9319 27.816 53.8399 27.46 53.6559 27.164C53.4719 26.86 53.2199 26.632 52.8999 26.48C52.5879 26.32 52.2399 26.24 51.8559 26.24C51.3039 26.24 50.8319 26.416 50.4399 26.768C50.0559 27.12 49.8359 27.608 49.7799 28.232H53.9319ZM59.3933 26.492C59.5853 26.116 59.8573 25.824 60.2093 25.616C60.5693 25.408 61.0053 25.304 61.5173 25.304V26.432H61.2293C60.0053 26.432 59.3933 27.096 59.3933 28.424V32H58.3013V25.424H59.3933V26.492ZM64.1699 28.7C64.1699 28.02 64.3059 27.428 64.5779 26.924C64.8499 26.412 65.2259 26.016 65.7059 25.736C66.1939 25.456 66.7499 25.316 67.3739 25.316C68.1819 25.316 68.8459 25.512 69.3659 25.904C69.8939 26.296 70.2419 26.84 70.4099 27.536H69.2339C69.1219 27.136 68.9019 26.82 68.5739 26.588C68.2539 26.356 67.8539 26.24 67.3739 26.24C66.7499 26.24 66.2459 26.456 65.8619 26.888C65.4779 27.312 65.2859 27.916 65.2859 28.7C65.2859 29.492 65.4779 30.104 65.8619 30.536C66.2459 30.968 66.7499 31.184 67.3739 31.184C67.8539 31.184 68.2539 31.072 68.5739 30.848C68.8939 30.624 69.1139 30.304 69.2339 29.888H70.4099C70.2339 30.56 69.8819 31.1 69.3539 31.508C68.8259 31.908 68.1659 32.108 67.3739 32.108C66.7499 32.108 66.1939 31.968 65.7059 31.688C65.2259 31.408 64.8499 31.012 64.5779 30.5C64.3059 29.988 64.1699 29.388 64.1699 28.7ZM76.931 25.304C77.427 25.304 77.875 25.412 78.275 25.628C78.675 25.836 78.987 26.152 79.211 26.576C79.443 27 79.559 27.516 79.559 28.124V32H78.479V28.28C78.479 27.624 78.315 27.124 77.987 26.78C77.659 26.428 77.211 26.252 76.643 26.252C76.067 26.252 75.607 26.432 75.263 26.792C74.927 27.152 74.759 27.676 74.759 28.364V32H73.667V23.12H74.759V26.36C74.975 26.024 75.271 25.764 75.647 25.58C76.031 25.396 76.459 25.304 76.931 25.304ZM82.7348 28.688C82.7348 28.016 82.8708 27.428 83.1428 26.924C83.4148 26.412 83.7868 26.016 84.2588 25.736C84.7388 25.456 85.2708 25.316 85.8548 25.316C86.4308 25.316 86.9308 25.44 87.3548 25.688C87.7788 25.936 88.0948 26.248 88.3028 26.624V25.424H89.4068V32H88.3028V30.776C88.0868 31.16 87.7628 31.48 87.3308 31.736C86.9068 31.984 86.4108 32.108 85.8428 32.108C85.2588 32.108 84.7308 31.964 84.2588 31.676C83.7868 31.388 83.4148 30.984 83.1428 30.464C82.8708 29.944 82.7348 29.352 82.7348 28.688ZM88.3028 28.7C88.3028 28.204 88.2028 27.772 88.0028 27.404C87.8028 27.036 87.5308 26.756 87.1868 26.564C86.8508 26.364 86.4788 26.264 86.0708 26.264C85.6628 26.264 85.2908 26.36 84.9548 26.552C84.6188 26.744 84.3508 27.024 84.1508 27.392C83.9508 27.76 83.8508 28.192 83.8508 28.688C83.8508 29.192 83.9508 29.632 84.1508 30.008C84.3508 30.376 84.6188 30.66 84.9548 30.86C85.2908 31.052 85.6628 31.148 86.0708 31.148C86.4788 31.148 86.8508 31.052 87.1868 30.86C87.5308 30.66 87.8028 30.376 88.0028 30.008C88.2028 29.632 88.3028 29.196 88.3028 28.7ZM96.2561 25.304C97.0561 25.304 97.7041 25.548 98.2001 26.036C98.6961 26.516 98.9441 27.212 98.9441 28.124V32H97.8641V28.28C97.8641 27.624 97.7001 27.124 97.3721 26.78C97.0441 26.428 96.5961 26.252 96.0281 26.252C95.4521 26.252 94.9921 26.432 94.6481 26.792C94.3121 27.152 94.1441 27.676 94.1441 28.364V32H93.0521V25.424H94.1441V26.36C94.3601 26.024 94.6521 25.764 95.0201 25.58C95.3961 25.396 95.8081 25.304 96.2561 25.304ZM103.86 26.324V30.2C103.86 30.52 103.928 30.748 104.064 30.884C104.2 31.012 104.436 31.076 104.772 31.076H105.576V32H104.592C103.984 32 103.528 31.86 103.224 31.58C102.92 31.3 102.768 30.84 102.768 30.2V26.324H101.916V25.424H102.768V23.768H103.86V25.424H105.576V26.324H103.86ZM114.79 26.636C115.006 26.26 115.326 25.948 115.75 25.7C116.182 25.444 116.682 25.316 117.25 25.316C117.834 25.316 118.362 25.456 118.834 25.736C119.314 26.016 119.69 26.412 119.962 26.924C120.234 27.428 120.37 28.016 120.37 28.688C120.37 29.352 120.234 29.944 119.962 30.464C119.69 30.984 119.314 31.388 118.834 31.676C118.362 31.964 117.834 32.108 117.25 32.108C116.69 32.108 116.194 31.984 115.762 31.736C115.338 31.48 115.014 31.164 114.79 30.788V35.12H113.698V25.424H114.79V26.636ZM119.254 28.688C119.254 28.192 119.154 27.76 118.954 27.392C118.754 27.024 118.482 26.744 118.138 26.552C117.802 26.36 117.43 26.264 117.022 26.264C116.622 26.264 116.25 26.364 115.906 26.564C115.57 26.756 115.298 27.04 115.09 27.416C114.89 27.784 114.79 28.212 114.79 28.7C114.79 29.196 114.89 29.632 115.09 30.008C115.298 30.376 115.57 30.66 115.906 30.86C116.25 31.052 116.622 31.148 117.022 31.148C117.43 31.148 117.802 31.052 118.138 30.86C118.482 30.66 118.754 30.376 118.954 30.008C119.154 29.632 119.254 29.192 119.254 28.688ZM123.2 28.688C123.2 28.016 123.336 27.428 123.608 26.924C123.88 26.412 124.252 26.016 124.724 25.736C125.204 25.456 125.736 25.316 126.32 25.316C126.896 25.316 127.396 25.44 127.82 25.688C128.244 25.936 128.56 26.248 128.768 26.624V25.424H129.872V32H128.768V30.776C128.552 31.16 128.228 31.48 127.796 31.736C127.372 31.984 126.876 32.108 126.308 32.108C125.724 32.108 125.196 31.964 124.724 31.676C124.252 31.388 123.88 30.984 123.608 30.464C123.336 29.944 123.2 29.352 123.2 28.688ZM128.768 28.7C128.768 28.204 128.668 27.772 128.468 27.404C128.268 27.036 127.996 26.756 127.652 26.564C127.316 26.364 126.944 26.264 126.536 26.264C126.128 26.264 125.756 26.36 125.42 26.552C125.084 26.744 124.816 27.024 124.616 27.392C124.416 27.76 124.316 28.192 124.316 28.688C124.316 29.192 124.416 29.632 124.616 30.008C124.816 30.376 125.084 30.66 125.42 30.86C125.756 31.052 126.128 31.148 126.536 31.148C126.944 31.148 127.316 31.052 127.652 30.86C127.996 30.66 128.268 30.376 128.468 30.008C128.668 29.632 128.768 29.196 128.768 28.7ZM136.721 25.304C137.521 25.304 138.169 25.548 138.665 26.036C139.161 26.516 139.409 27.212 139.409 28.124V32H138.329V28.28C138.329 27.624 138.165 27.124 137.837 26.78C137.509 26.428 137.061 26.252 136.493 26.252C135.917 26.252 135.457 26.432 135.113 26.792C134.777 27.152 134.609 27.676 134.609 28.364V32H133.517V25.424H134.609V26.36C134.825 26.024 135.117 25.764 135.485 25.58C135.861 25.396 136.273 25.304 136.721 25.304ZM148.993 28.46C148.993 28.668 148.981 28.888 148.957 29.12H143.701C143.741 29.768 143.961 30.276 144.361 30.644C144.769 31.004 145.261 31.184 145.837 31.184C146.309 31.184 146.701 31.076 147.013 30.86C147.333 30.636 147.557 30.34 147.685 29.972H148.861C148.685 30.604 148.333 31.12 147.805 31.52C147.277 31.912 146.621 32.108 145.837 32.108C145.213 32.108 144.653 31.968 144.157 31.688C143.669 31.408 143.285 31.012 143.005 30.5C142.725 29.98 142.585 29.38 142.585 28.7C142.585 28.02 142.721 27.424 142.993 26.912C143.265 26.4 143.645 26.008 144.133 25.736C144.629 25.456 145.197 25.316 145.837 25.316C146.461 25.316 147.013 25.452 147.493 25.724C147.973 25.996 148.341 26.372 148.597 26.852C148.861 27.324 148.993 27.86 148.993 28.46ZM147.865 28.232C147.865 27.816 147.773 27.46 147.589 27.164C147.405 26.86 147.153 26.632 146.833 26.48C146.521 26.32 146.173 26.24 145.789 26.24C145.237 26.24 144.765 26.416 144.373 26.768C143.989 27.12 143.769 27.608 143.713 28.232H147.865ZM153.326 23.12V32H152.234V23.12H153.326Z" fill="#52A415"/>
</svg>
